<svg width="30" height="16" viewBox="0 0 30 16" fill="none" xmlns="http://www.w3.org/2000/svg">
<path fill-rule="evenodd" clip-rule="evenodd" d="M6.3 1.5C8 0.7 10.8 0 15.2 0C19.7 0 22.3 0.7 23.9 1.4C24.7 1.8 25.2 2.2 25.6 2.5C25.8 2.7 25.9 2.8 26 2.9C26 3 26.1 3 26.1 3.1C26.1 3.1 26.1 3.1 26.1 3.2L29.1 9.8C29.6 11 29.4 12.5 28 13.3C26 14.4 21.9 15.9 15 15.9C8.3 16 4 14.4 1.9 13.3C0.499995 12.6 0.199995 11 0.799995 9.8L3.8 3.2V3.1C3.8 3.1 3.8 3.1 3.8 3C3.9 3 3.99999 3 3.99999 2.9C4.09999 2.8 4.2 2.7 4.4 2.5C4.79999 2.2 5.4 1.8 6.3 1.5ZM6.5 3.6C6.7 3.5 6.9 3.4 7.1 3.3C8.5 2.7 11 2 15.2 2C19.5 2 21.8 2.7 23.1 3.3C23.3 3.4 23.5 3.5 23.6 3.6C23.2 3.8 22.8 4 22.3 4.2C20.7 4.8 18.3 5.5 15.2 5.5C12.1 5.5 9.6 4.8 7.8 4.2C7.3 4 6.9 3.8 6.5 3.6ZM5.1 5.1L2.59999 10.6C2.39999 11 2.59999 11.4 2.79999 11.5C4.59999 12.5 8.6 14 15.2 14C21.8 14 25.5 12.5 27.2 11.6C27.4 11.5 27.6 11.2 27.4 10.7L24.9 5.1C24.4 5.4 23.8 5.7 23.1 6C21.3 6.7 18.6 7.4 15.3 7.4C11.9 7.4 9.2 6.7 7.3 6C6.3 5.7 5.6 5.4 5.1 5.1Z" fill="#384D5D"/>
</svg>
