<svg width="24" height="24" viewBox="0 0 24 24" fill="none" xmlns="http://www.w3.org/2000/svg">
<g clip-path="url(#clip0_1_51)">
<path d="M22.2 0H1.8C0.8 0 0 0.8 0 1.7V22.2C0 23.2 0.8 23.9 1.8 23.9H22.3C23.3 23.9 24.1 23.1 24.1 22.2V1.7C24 0.8 23.2 0 22.2 0ZM7.1 20.5H3.6V9H7.2V20.5H7.1ZM5.3 7.4C4.2 7.4 3.2 6.5 3.2 5.3C3.2 4.2 4.1 3.2 5.3 3.2C6.4 3.2 7.4 4.1 7.4 5.3C7.4 6.5 6.5 7.4 5.3 7.4ZM20.5 20.5H16.9V14.9C16.9 13.6 16.9 11.9 15 11.9C13.1 11.9 12.9 13.3 12.9 14.8V20.5H9.4V9H12.8V10.6C13.3 9.7 14.4 8.7 16.2 8.7C19.8 8.7 20.5 11.1 20.5 14.2V20.5Z" fill="#384D5D"/>
</g>
<defs>
<clipPath id="clip0_1_51">
<rect width="24" height="24" fill="white"/>
</clipPath>
</defs>
</svg>
