<svg width="24" height="24" viewBox="0 0 24 24" fill="none" xmlns="http://www.w3.org/2000/svg">
<g clip-path="url(#clip0_1_57)">
<path d="M-6.79778e-06 12C-6.79778e-06 6.30002 -6.91414e-06 4.10002 1.99999 2.00002C3.99999 -0.0999763 6.19999 2.37198e-05 12 2.37198e-05C17.8 2.37198e-05 20 2.36034e-05 22 2.00002C24 4.00002 24 6.30002 24 12C24 17.7 24 20 22 22C20 24 17.8 24 12 24C6.19999 24 4.09999 24 1.99999 22C-0.100007 20 -6.79778e-06 17.7 -6.79778e-06 12ZM21.8 12C21.8 6.50002 21.8 4.90002 20.4 3.60002C19 2.30002 17.4 2.20002 12 2.20002C6.59999 2.20002 4.89999 2.20002 3.59999 3.60002C2.29999 5.00002 2.19999 6.60002 2.19999 12C2.19999 17.4 2.19999 19.1 3.59999 20.4C4.99999 21.7 6.59999 21.8 12 21.8C17.4 21.8 19.1 21.8 20.4 20.4C21.7 19 21.8 17.5 21.8 12ZM12 5.90002C15.4 5.90002 18.1 8.70002 18.1 12C18.1 15.3 15.3 18.1 12 18.1C8.69999 18.1 5.89999 15.3 5.89999 12C5.89999 10.4 6.49999 8.80002 7.69999 7.70002C8.79999 6.50002 10.4 5.90002 12 5.90002ZM12 16C13.6 16 15.1 15 15.7 13.5C16 12.8 16.1 12 16 11.2C15.7 9.60002 14.4 8.30002 12.8 8.00002C12 7.90002 11.2 8.00002 10.5 8.30002C8.99999 8.90002 7.99999 10.4 7.99999 12C7.99999 12.5 8.09999 13 8.29999 13.5C8.69999 14.5 9.49999 15.2 10.4 15.7C11 15.9 11.5 16 12 16ZM19.8 5.60002C19.8 6.40002 19.2 7.00002 18.4 7.00002C17.6 7.00002 17 6.30002 17 5.60002C17 4.80002 17.6 4.20002 18.4 4.20002C19.2 4.10002 19.8 4.80002 19.8 5.60002Z" fill="#384D5D"/>
</g>
<defs>
<clipPath id="clip0_1_57">
<rect width="24" height="24" fill="white"/>
</clipPath>
</defs>
</svg>

