<svg width="24" height="24" viewBox="0 0 24 24" fill="none" xmlns="http://www.w3.org/2000/svg">
<path d="M12 0C9.62663 0 7.30655 0.703785 5.33316 2.02236C3.35977 3.34094 1.8217 5.21509 0.91345 7.4078C0.00519831 9.60051 -0.23244 12.0133 0.230582 14.3411C0.693605 16.6689 1.83649 18.807 3.51472 20.4853C5.19295 22.1635 7.33115 23.3064 9.65892 23.7694C11.9867 24.2324 14.3995 23.9948 16.5922 23.0865C18.7849 22.1783 20.6591 20.6402 21.9776 18.6668C23.2962 16.6934 24 14.3734 24 12C23.9964 8.81851 22.7309 5.76836 20.4813 3.51871C18.2316 1.26906 15.1815 0.0036166 12 0ZM23.0116 11.5117H18.1035C18.0702 9.72568 17.735 7.9582 17.1121 6.28403C18.1501 5.79439 19.1122 5.15801 19.969 4.39442C21.8136 6.31915 22.8951 8.84922 23.0116 11.5126V11.5117ZM12.488 1.40255C13.2276 2.01302 13.8906 2.71076 14.4625 3.48053C14.9933 4.19362 15.4487 4.9599 15.8212 5.76705C14.7515 6.16178 13.6271 6.38799 12.488 6.43758V1.40255ZM13.6378 1.09835C15.7259 1.41257 17.6791 2.322 19.2636 3.71771C18.5015 4.38642 17.6506 4.94654 16.7351 5.38217C15.9967 3.76337 14.9439 2.30753 13.6378 1.09934V1.09835ZM9.58725 3.48118C10.1464 2.72882 10.7925 2.0451 11.512 1.4442V6.43824C10.3879 6.38965 9.27788 6.16877 8.2208 5.78332C8.59489 4.97046 9.05286 4.19889 9.58725 3.48118ZM7.30561 5.40266C6.37426 4.96429 5.50908 4.39732 4.73539 3.71836C6.33486 2.30984 8.3096 1.39713 10.4188 1.09152C9.10385 2.30659 8.04532 3.77221 7.30561 5.40266ZM11.512 7.41427V11.5136H6.92268C6.95964 9.86437 7.27136 8.23284 7.84503 6.68615C9.02171 7.11933 10.2591 7.36481 11.512 7.41427ZM11.512 12.4896V16.5194C10.2884 16.5674 9.07949 16.8029 7.92734 17.2175C7.31656 15.7128 6.97644 14.112 6.92268 12.489L11.512 12.4896ZM11.512 17.4954V22.4575C10.2016 21.2081 9.12303 19.7364 8.32621 18.1106C9.35187 17.749 10.4255 17.5421 11.512 17.4954ZM10.5815 22.9312C8.39575 22.6483 6.34571 21.7142 4.69798 20.2504C5.50697 19.5322 6.41755 18.9373 7.40029 18.4851C8.19657 20.1392 9.27282 21.6438 10.5815 22.9312ZM12.488 22.5041V17.4938C13.5896 17.5411 14.6778 17.7539 15.7161 18.1249C14.9099 19.7653 13.8167 21.2489 12.488 22.5041ZM16.6401 18.5043C17.6073 18.9543 18.504 19.5425 19.302 20.2504C17.6689 21.7011 15.6403 22.6319 13.4754 22.9238C14.7761 21.6429 15.8467 20.1483 16.6401 18.5043ZM12.488 16.5197V12.489H17.1265C17.0728 14.1177 16.7307 15.724 16.1159 17.2332C14.9509 16.8087 13.727 16.5676 12.488 16.5187V16.5197ZM12.488 11.5139V7.41459C13.756 7.36423 15.0079 7.11264 16.1969 6.66923C16.7748 8.22063 17.0886 9.85786 17.1255 11.513L12.488 11.5139ZM4.03102 4.39572C4.89936 5.16987 5.8759 5.81333 6.92984 6.30582C6.31212 7.97403 5.97974 9.73436 5.94665 11.513H0.988402C1.10529 8.84992 2.18671 6.32028 4.03102 4.39572ZM0.988402 12.489H5.94665C5.99645 14.2389 6.35507 15.9662 7.00597 17.5914C5.90815 18.0951 4.89287 18.762 3.99458 19.5695C2.17169 17.6489 1.10409 15.1344 0.988402 12.489ZM20.0038 19.5698C19.1176 18.7726 18.1173 18.1123 17.036 17.6106C17.6916 15.9799 18.0528 14.2458 18.1028 12.489H23.0116C22.8954 15.1347 21.8273 17.6493 20.0038 19.5698Z" fill="#384D5D"/>
</svg>

