<svg width="30" height="32" viewBox="0 0 30 32" fill="none" xmlns="http://www.w3.org/2000/svg">
<path d="M16.2 31.9001C15.6 31.6001 15 31.3001 14.5 30.9001C12.5 29.3001 10.3 28.7001 7.79997 29.0001C6.19997 29.2001 4.79997 28.8001 3.69997 27.6001C2.49997 26.3001 2.29997 24.7001 2.69997 23.0001C2.79997 22.5001 3.29997 22.1001 3.69997 21.8001C4.29997 21.5001 4.99997 21.3001 5.59997 21.1001C6.89997 20.6001 7.99997 19.8001 8.99997 18.9001C9.79997 18.2001 10.7 17.5001 11.7 17.0001C14 15.8001 16.3 16.5001 17.5 18.9001C18 19.8001 18.4 20.9001 18.7 21.9001C19.1 23.3001 19.8 24.6001 20.7 25.7001C22.5 27.8001 22.1 29.8001 19.8 31.4001C18.7 32.0001 17.5 32.2001 16.2 31.9001Z" fill="white"/>
<path d="M16.8 7.70003C16.3 8.70003 15.8 9.90003 15.1 10.8C14.2 12.2 12.8 12.6 11.2 12.1C9.6 11.7 8.7 10.7 8.4 9.00003C8.3 7.80003 8.5 6.50003 9 5.40003C9.8 3.50003 11.1 1.90003 12.9 0.800026C13.3 0.600026 13.7 0.400026 14.1 0.200026C15.4 -0.299974 16.4 0.200026 16.9 1.50003C17.4 2.80003 17.4 4.10003 17.2 5.40003C17.1 6.10003 16.9 6.90003 16.8 7.60003C16.7 7.70003 16.7 7.70003 16.8 7.70003Z" fill="white"/>
<path d="M25.8 10.9C25.4 12.2 24.9 13.3 23.9 14.1C21.8 15.8 18.5 14.8 18 12.2C17.8 11.2 17.9 9.99998 18.1 8.99998C18.5 6.99998 19.3 5.09998 20.7 3.49998C21 3.19998 21.2 2.89998 21.6 2.69998C22.7 1.89998 23.8 2.09998 24.6 3.19998C26 5.19998 26.3 7.49998 26.1 9.89998C25.9 10.3 25.8 10.7 25.8 10.9Z" fill="white"/>
<path d="M29.5 21C29.1 22.2 28.5 23.3 27.6 24.2C26.4 25.4 24.9 25.7 23.4 24.9C21.9 24.1 21.3 22.7 21.7 21C22.4 18.4 23.8 16.4 26 14.8C26.3 14.6 26.6 14.4 27 14.3C28 14 28.7 14.3 29.2 15.2C29.9 16.4 29.9 17.8 29.8 19.1C29.7 19.8 29.6 20.4 29.5 21Z" fill="white"/>
<path d="M0.399977 12.1C0.799977 11 1.49998 9.59998 2.69998 8.49998C4.19998 6.99998 5.69998 7.29998 6.49998 9.19998C7.59998 11.7 7.69998 14.4 6.69998 17C6.19998 18.5 4.99998 19.2 3.39998 19.2C1.79998 19.1 0.699977 18.3 0.199977 16.8C-0.100023 15.5 -0.100023 14 0.399977 12.1Z" fill="white"/>
</svg>
